<svg xmlns="http://www.w3.org/2000/svg" viewBox="0 0 100 60">
  <path fill="#333" d="M85.9,21.3c-2.4-5.3-7.5-9.2-13.5-9.2c-5.5,0-10.3,3.3-12.7,8.1c-2.6-5-7.9-8.4-14-8.4c-8.8,0-15.9,7.1-15.9,15.9 c0,2.6,0.6,5.1,1.8,7.3c-7.2-1.2-12.9-7.5-12.9-15.2c0-8.4,6.8-15.2,15.2-15.2c4.4,0,8.4,1.9,11.2,4.9c2.8-3,6.8-4.9,11.2-4.9 c6.9,0,12.7,4.5,14.7,10.6c-4.9-1-9.9,1.1-12.6,5.3c-1.5,2.3-2.1,5.1-1.7,7.8c0.4,2.7,1.8,5.1,3.9,6.7c3.9,3,9.4,3,13.3,0 c2.1-1.6,3.5-4,3.9-6.7c0.4-2.7-0.2-5.5-1.7-7.8C95.8,22.4,90.8,20.3,85.9,21.3z"/>
  <path fill="#333" d="M50,37.5c-1.1,0-2.1,0.3-3,0.8c-2.7,1.5-4.4,4.5-4.4,7.8c0,4.9,4,8.9,8.9,8.9s8.9-4,8.9-8.9c0-3.3-1.8-6.3-4.4-7.8 C52.1,37.8,51.1,37.5,50,37.5z"/>
</svg> 